<?xml version="1.0" encoding="UTF-8" standalone="no"?><!DOCTYPE svg PUBLIC "-//W3C//DTD SVG 1.1//EN" "http://www.w3.org/Graphics/SVG/1.1/DTD/svg11.dtd"><svg width="100%" height="100%" viewBox="0 0 2452 2452" version="1.1" xmlns="http://www.w3.org/2000/svg" xmlns:xlink="http://www.w3.org/1999/xlink" xml:space="preserve" xmlns:serif="http://www.serif.com/" style="fill-rule:evenodd;clip-rule:evenodd;stroke-linejoin:round;stroke-miterlimit:2;"><rect id="Logo-Cumbres" serif:id="Logo Cumbres" x="0" y="0" width="2451.32" height="2451.32" style="fill:none;"/><clipPath id="_clip1"><rect x="0" y="0" width="2451.32" height="2451.32"/></clipPath><g clip-path="url(#_clip1)"><path d="M1226.16,0.081c-676.915,0 -1225.66,548.747 -1225.66,1225.66c0,676.915 548.747,1225.66 1225.66,1225.66c676.915,0 1225.66,-548.747 1225.66,-1225.66c0,-676.915 -548.747,-1225.66 -1225.66,-1225.66Zm970.109,1879.71c-41.862,61.958 -89.935,120.221 -142.888,173.174c-52.952,52.952 -111.215,101.025 -173.173,142.887c-62.539,42.247 -129.393,78.537 -198.7,107.852c-144.189,60.987 -297.391,91.907 -455.348,91.907c-157.956,0 -311.158,-30.92 -455.348,-91.907c-69.306,-29.315 -136.161,-65.605 -198.699,-107.852c-61.959,-41.862 -120.222,-89.935 -173.174,-142.887c-52.952,-52.953 -101.025,-111.216 -142.887,-173.174c-42.247,-62.538 -78.538,-129.393 -107.847,-198.699c-60.987,-144.19 -91.913,-297.392 -91.913,-455.349c0,-157.956 30.926,-311.158 91.913,-455.348c29.309,-69.306 65.6,-136.161 107.847,-198.699c41.862,-61.959 89.935,-120.222 142.887,-173.174c52.952,-52.952 111.215,-101.025 173.174,-142.887c62.538,-42.247 129.393,-78.537 198.699,-107.853c144.19,-60.987 297.392,-91.907 455.348,-91.907c157.957,0 311.159,30.92 455.348,91.907c69.307,29.316 136.161,65.606 198.7,107.853c61.958,41.862 120.221,89.935 173.173,142.887c52.953,52.952 101.026,111.215 142.888,173.174c42.247,62.538 78.537,129.393 107.852,198.699c60.987,144.19 91.907,297.392 91.907,455.348c0,157.957 -30.92,311.159 -91.907,455.349c-29.315,69.306 -65.605,136.161 -107.852,198.699Zm-983.387,262.992c1.563,-21.02 -12.322,-43.188 -45.083,-45.628l-59.347,-4.423l-10.747,144.238l26.58,1.977l4.287,-57.487l24.312,1.811l31.778,60.176l30.701,2.292l-34.514,-65.15c19.404,-4.559 30.772,-20.907 32.033,-37.806Zm185.886,-60.673l-24.081,153.309l27.859,-6.081l4.885,-33.845l59.761,-13.044l18.533,28.741l28.67,-6.253l-85.749,-129.346l-29.878,6.519Zm-480.209,115.407l97.644,25.982l6.484,-24.366l-71.687,-19.071l9.083,-34.147l62.503,16.632l6.484,-24.365l-62.503,-16.627l8.656,-32.554l67.897,18.066l6.484,-24.36l-93.855,-24.975l-37.19,139.785Zm685.91,-53.37l-47.001,-109.806l-24.697,10.569l56.925,132.982l87.768,-37.57l-9.923,-23.175l-63.072,27Zm-193.326,24.731l8.639,-60.259l32.951,51.182l-41.59,9.077Zm-248.809,-9.557l-31.938,-2.381l2.765,-37.089l33.999,2.534c14.838,1.107 19.516,10.569 18.888,19.019c-0.752,10.095 -8.876,19.024 -23.714,17.917Zm-300.542,-139.299l-54.877,-26.047l-62.023,130.66l24.081,11.434l22.855,-48.162l28.374,13.47c29.866,14.175 54.93,1.368 65.558,-21.032c10.19,-21.463 4.595,-46.764 -23.968,-60.323Zm891.203,-63.256l-13.328,-21.399l-102.79,64.024l13.329,21.399l39.819,-24.803l63.148,101.386l22.63,-14.092l-63.154,-101.386l40.346,-25.129Zm-892.305,113.277c-5.05,10.64 -15.205,15.655 -29.019,9.1l-29.12,-13.819l17.633,-37.149l30.05,14.264c13.067,6.205 15.507,16.969 10.456,27.604Zm-136.523,-127.935l-99.285,63.042l35.799,-112.027l-26.994,-20.83l-88.372,114.526l19.468,15.027l62.243,-80.663l-32.791,103.388l19.143,14.773l91.687,-57.937l-62.242,80.662l19.966,15.401l88.372,-114.531l-26.994,-20.831Zm1149.39,69.982l-93.385,-110.467l20.358,-17.211l93.385,110.467l-20.358,17.211Zm72.096,-786.346c-0,-397.5 -322.237,-719.742 -719.742,-719.742c-397.5,-0 -719.737,322.242 -719.737,719.742c0,393.609 315.967,713.365 708.096,719.594l0.467,0.734l1.114,-0.716c3.357,0.047 6.696,0.13 10.06,0.13c397.505,-0 719.742,-322.243 719.742,-719.742Zm-1417.61,567.233l45.604,53.456l19.179,-16.366l-63.042,-73.895l-110.049,93.896l65.594,76.874l19.178,-16.36l-48.156,-56.44l26.887,-22.938l41.981,49.21l19.184,-16.366l-41.986,-49.21l25.626,-21.861Zm1465.36,18.397l-67.411,-58.53l-17.343,19.972l68.347,59.346c16.543,14.359 16.354,30.34 4.156,44.385c-13.008,14.98 -30.458,16.798 -47.623,1.895l-66.476,-57.719l-17.479,20.132l67.412,58.529c30.12,26.148 60.347,20.647 82.978,-5.411c22.76,-26.219 23.4,-56.588 -6.561,-82.599Zm-509.067,26.165c-67.406,28.51 -138.299,45.408 -211.311,50.489l207.616,-322.687l129.825,201.778c-39.233,27.936 -81.391,51.496 -126.13,70.42Zm-516.845,-0c-43.579,-18.433 -84.695,-41.276 -123.057,-68.264l128.28,-199.381l204.626,318.045c-72.504,-5.205 -142.893,-22.08 -209.849,-50.4Zm257.721,21.689l-219.329,-340.888l222.26,-345.448l219.322,340.888l-222.253,345.448Zm-807.508,-163.594c-4.95,-15.992 -8.171,-29.41 3.997,-36.444c11.09,-6.406 21.659,-0.106 28.687,12.061c6.827,11.807 8.308,25.514 -4.162,33.673l13.553,23.436c25.579,-14.785 25.177,-44.39 11.523,-68.009c-13.856,-23.969 -38.866,-37.919 -64.629,-23.027c-27.012,15.619 -19.983,43.058 -13.861,63.154c5.086,16.632 10.753,32.216 -1.776,39.452c-10.729,6.205 -23.199,-0.906 -30.233,-13.074c-7.858,-13.595 -8.485,-31.612 9.704,-43.082l-13.446,-23.263c-31.305,18.1 -30.903,52.241 -16.011,78.004c14.27,24.691 39.819,38.327 64.865,23.844c29.339,-16.958 17.414,-48.731 11.789,-66.725Zm1686.14,-32.946c-29.38,-16.887 -50.903,9.356 -63.651,23.241c-11.357,12.298 -21.351,21.807 -33.537,14.808c-11.108,-6.389 -10.948,-18.687 -3.949,-30.872c6.797,-11.825 17.917,-19.972 31.227,-13.275l13.494,-23.472c-25.62,-14.719 -51.033,0.462 -64.628,24.117c-13.796,24.004 -13.334,52.632 12.464,67.465c27.053,15.548 47.274,-4.287 61.591,-19.658c11.848,-12.731 22.494,-25.449 35.035,-18.237c10.753,6.176 10.841,20.534 3.837,32.714c-7.822,13.618 -23.098,23.193 -42.147,13.198l-13.387,23.287c31.358,18.024 60.697,0.563 75.523,-25.235c14.211,-24.721 13.21,-53.663 -11.872,-68.081Zm-1347.41,32.538c-45.717,-45.717 -84.068,-97.064 -114.49,-153.208l156.417,-243.119l141.182,219.441l-139.483,216.794c-15.045,-12.612 -29.611,-25.899 -43.626,-39.908Zm898.232,37.468l-140.85,-218.914l143.574,-223.147l156.654,243.492c-31.062,59.223 -70.798,113.253 -118.647,161.101c-13.109,13.109 -26.715,25.579 -40.731,37.468Zm-1092.7,-506.95c-0,-89.657 17.55,-176.602 52.153,-258.419c33.442,-79.059 81.32,-150.07 142.313,-211.063c60.999,-60.993 132.004,-108.877 211.062,-142.313c81.818,-34.603 168.763,-52.153 258.42,-52.153c89.656,0 176.601,17.55 258.425,52.153c79.052,33.442 150.063,81.32 211.056,142.313c60.993,60.993 108.877,132.004 142.313,211.063c34.609,81.817 52.153,168.762 52.153,258.419c0,86.009 -16.194,169.514 -48.061,248.401l-184.412,-286.622l-176.744,274.703l-252.498,-392.449l-255.429,397.002l-174.358,-270.99l-184.744,287.137c-34.259,-81.457 -51.649,-167.975 -51.649,-257.182Zm328.077,-233.302c3.322,2.729 6.223,5.323 8.751,7.816c2.582,2.623 4.915,5.08 6.934,7.312c2.025,2.226 3.73,4.222 5.068,5.933l9.166,11.688l9.184,-11.676c2.7,-3.428 6.856,-8.017 11.913,-13.145c0.835,-0.823 1.699,-1.646 2.599,-2.481c0.983,-0.906 2.002,-1.824 3.067,-2.747c2.049,-1.777 4.258,-3.594 6.662,-5.477l11.717,-9.172l-11.711,-9.189c-5.43,-4.258 -9.735,-8.041 -13.542,-11.89c-0.858,-0.87 -1.723,-1.776 -2.593,-2.712c-2.612,-2.824 -5.282,-5.986 -8.1,-9.58l-9.196,-11.706l-9.177,11.718c-2.795,3.57 -5.454,6.726 -8.071,9.55c-0.876,0.948 -1.741,1.854 -2.611,2.73c-2.842,2.884 -5.98,5.738 -9.657,8.775c-1.232,1.013 -2.517,2.049 -3.879,3.115l-11.706,9.189l11.718,9.172c1.202,0.941 2.357,1.865 3.464,2.777Zm616.933,-2.778c1.202,0.941 2.357,1.865 3.464,2.777c3.316,2.729 6.217,5.323 8.745,7.815c3.879,3.938 7.189,7.496 9.729,10.475c0.847,0.989 1.61,1.918 2.279,2.771l9.166,11.688l9.184,-11.676c2.7,-3.429 6.856,-8.017 11.913,-13.145c0.432,-0.426 0.906,-0.865 1.356,-1.297c1.362,-1.297 2.777,-2.599 4.31,-3.931c2.043,-1.777 4.252,-3.595 6.656,-5.477l11.718,-9.166l-0,-0.006l-11.706,-9.19c-1.984,-1.551 -3.772,-3.031 -5.489,-4.482c-2.979,-2.534 -5.637,-4.962 -8.053,-7.407c-1.853,-1.871 -3.73,-3.92 -5.643,-6.14c-1.646,-1.907 -3.321,-3.938 -5.05,-6.152l-9.196,-11.706l-9.177,11.718c-2.795,3.57 -5.454,6.726 -8.077,9.556c-0.87,0.942 -1.741,1.847 -2.611,2.724c-2.842,2.889 -5.974,5.737 -9.657,8.775c-1.226,1.012 -2.517,2.049 -3.873,3.114l-11.706,9.19l0,0.006l11.718,9.166Zm-305.726,-149.184c1.019,0.883 1.984,1.747 2.914,2.6c0.923,0.858 1.812,1.699 2.652,2.528c2.588,2.629 4.921,5.086 6.94,7.313c2.019,2.226 3.73,4.227 5.068,5.938l9.166,11.683l9.184,-11.677c0.675,-0.852 1.438,-1.782 2.285,-2.777c2.546,-2.978 5.832,-6.519 9.628,-10.362c3.481,-3.44 7.514,-6.939 12.322,-10.705l11.717,-9.172l-11.706,-9.189c-5.435,-4.263 -9.74,-8.041 -13.541,-11.896c-2.185,-2.202 -4.405,-4.665 -6.691,-7.371c-1.308,-1.558 -2.635,-3.168 -4.003,-4.915l-9.195,-11.712l-7.188,9.184l-1.99,2.54c-0.935,1.19 -1.847,2.333 -2.753,3.434c-1.812,2.203 -3.576,4.234 -5.323,6.117c-0.87,0.941 -1.741,1.853 -2.605,2.723c-3.796,3.855 -8.1,7.633 -13.536,11.896l-11.706,9.189l11.718,9.172c2.404,1.883 4.613,3.701 6.643,5.459Zm700.723,-208.307l-32.767,-40.471c-41.708,36.166 -33.803,88.787 -5.518,123.715c26.917,33.247 71.396,48.281 106.324,20.002c40.228,-32.578 13.287,-78.164 0.9,-102.826c-11.658,-23.264 -14.447,-36.562 -4.091,-44.947c10.119,-8.194 23.4,-4.594 34.324,8.9c9.557,11.8 13.862,27.462 2.025,39.44l32.963,40.707c34.046,-30.357 27.432,-76.452 1.492,-108.491c-25.745,-31.797 -68.299,-48.393 -104.673,-18.942c-36.858,29.842 -20.072,69.294 -5.613,99.462c11.612,23.702 19.06,38.813 7.496,48.174c-10.119,8.195 -23.986,3.867 -35.692,-10.587c-13.849,-17.1 -16.141,-37.178 2.83,-54.136Zm-1453.96,72.123c43.691,36.657 110.967,46.16 155.789,-7.265c32.874,-39.18 39.405,-95.194 -6.661,-133.846l-33.069,39.422c22.837,19.557 19.261,44.077 4.322,61.881c-24.507,29.209 -62.343,21.742 -87.987,0.225c-24.934,-20.913 -37.877,-55.64 -14.365,-83.664c16.135,-19.232 40.678,-25.343 56.588,-11.997l33.271,-39.653c-42.283,-30.618 -91.333,-20.38 -125.397,20.22c-46.018,54.853 -25.946,118.221 17.509,154.677Zm1358.71,-133.415l-84.346,-61.608l21.571,-29.535l73.587,53.746l28.883,-39.547l-73.587,-53.745l20.291,-27.782l80.095,58.5l28.521,-39.044l-121.393,-88.668l-127.973,175.205l125.646,91.777l28.705,-39.299Zm-1022.44,-32.471c42.946,-27.782 58.116,-74.523 26.124,-123.97l-72.065,-111.387l-42.419,27.444l72.906,112.69c14.815,22.903 8.982,40.707 -10.279,53.165c-20.818,13.471 -41.406,10.179 -56.901,-13.766l-71.053,-109.824l-42.94,27.781l72.066,111.388c32.323,49.968 81.876,54.089 124.561,26.479Zm728.034,-170.897l24.691,9.19l15.537,92.434l56.066,20.871l-21.013,-107.041c27.568,-0.325 49.334,-17.029 58.198,-40.849c10.918,-29.345 2.191,-68.975 -44.586,-86.383l-89.177,-33.193l-75.683,203.347l47.641,17.734l28.326,-76.11Zm-550.063,75.952l-29.895,-119.682l72.894,108.941l41.803,-10.438l13.109,-130.424l29.89,119.683l47.214,-11.789l-52.579,-210.5l-56.83,14.193l-18.225,155.984l-89.432,-129.091l-57.133,14.27l52.573,210.494l46.611,-11.641Zm421.27,-96.179c1.894,-25.656 -13.364,-46.362 -41.418,-53.716c23.24,-3.256 37.901,-20.824 39.523,-42.773c1.936,-26.278 -15.04,-57.364 -55.848,-60.378l-102.322,-7.543l-15.957,216.391l99.231,7.319c46.676,3.44 74.464,-27.764 76.791,-59.3Zm-121.744,7.183l3.008,-40.803l46.06,3.399c16.692,1.232 22.785,11.315 22.056,21.204c-0.775,10.509 -8.686,20.806 -27.539,19.421l-43.585,-3.221Zm281.025,-68.874l40.381,15.028c15.395,5.732 17.669,16.496 14.318,25.502c-3.784,10.166 -14.975,16.253 -31.246,10.202l-37.184,-13.843l13.731,-36.889Zm-272.202,-50.756l41.732,3.079c13.908,1.025 18.331,8.497 17.715,16.846c-0.681,9.272 -7.176,17.189 -21.392,16.14l-40.495,-2.99l2.44,-33.075Z" style="fill:#fff;fill-rule:nonzero;"/></g></svg>